# xmcd
#
# Track frame offsets:
#	150
#	12899
#	25279
#	38353
#	53579
#	65284
#	78019
#	91151
#	105626
#	119547
#	131566
#	145399
#	159644
#	172103
#	185752
#	198220
#	212722
#	225138
#	235953
#	247255
#
# Disc length: 3460 seconds
#
# Revision: 0
# Processed by: cddbd v1.5.1PL2 Copyright (c) Steve Scherf et al.
# Submitted via: audiograbber 1.83.01
#
DISCID=060d8214
DTITLE=Peetie Wheatstraw - The Last Straw
DYEAR=1999
DGENRE=Blues
TTITLE0=The Little House
TTITLE1=Whiskey Head Blues
TTITLE2=Coon Can Shorty
TTITLE3=Number Blues
TTITLE4=Peetie Wheatstraw Stomp
TTITLE5=Doin' The Best I Can
TTITLE6=Chicago Mill Blues
TTITLE7=Working On The Project
TTITLE8=304 Blues
TTITLE9=Shack Bully Stomp
TTITLE10=Third Street Is Goin' Down
TTITLE11=Cave Alley
TTITLE12=Ganster's Blues
TTITLE13=Kidnapper's Blues
TTITLE14=Throw Me In The Alley
TTITLE15=Hard Headed Black Gal
TTITLE16=Love Me With Attention
TTITLE17=Truckin' Thru Traffic
TTITLE18=Separation Day
TTITLE19=Peeti Wheatstraw Stomp (No. 2)
EXTD=
EXTT0=
EXTT1=
EXTT2=
EXTT3=
EXTT4=
EXTT5=
EXTT6=
EXTT7=
EXTT8=
EXTT9=
EXTT10=
EXTT11=
EXTT12=
EXTT13=
EXTT14=
EXTT15=
EXTT16=
EXTT17=
EXTT18=
EXTT19=
PLAYORDER=
